HIERARCHY
ROOT Hips
{
	OFFSET 0.00000 0.00000 0.00000
	CHANNELS 6 Xposition Yposition Zposition Zrotation Yrotation Xrotation 
	JOINT LHipJoint
	{
		OFFSET 0 0 0
		CHANNELS 3 Zrotation Yrotation Xrotation
		JOINT LeftUpLeg
		{
			OFFSET 1.56857 -1.73443 1.15205
			CHANNELS 3 Zrotation Yrotation Xrotation
			JOINT LeftLeg
			{
				OFFSET 2.39362 -6.57643 0.00000
				CHANNELS 3 Zrotation Yrotation Xrotation
				JOINT LeftFoot
				{
					OFFSET 2.50952 -6.89485 0.00000
					CHANNELS 3 Zrotation Yrotation Xrotation
					JOINT LeftToeBase
					{
						OFFSET 0.17171 -0.47178 1.88682
						CHANNELS 3 Zrotation Yrotation Xrotation
						End Site
						{
							OFFSET 0.00000 -0.00000 0.98146
						}
					}
				}
			}
		}
	}
	JOINT RHipJoint
	{
		OFFSET 0 0 0
		CHANNELS 3 Zrotation Yrotation Xrotation
		JOINT RightUpLeg
		{
			OFFSET -1.28153 -1.73443 1.15205
			CHANNELS 3 Zrotation Yrotation Xrotation
			JOINT RightLeg
			{
				OFFSET -2.26861 -6.23296 0.00000
				CHANNELS 3 Zrotation Yrotation Xrotation
				JOINT RightFoot
				{
					OFFSET -2.54143 -6.98254 0.00000
					CHANNELS 3 Zrotation Yrotation Xrotation
					JOINT RightToeBase
					{
						OFFSET -0.23309 -0.64041 1.93119
						CHANNELS 3 Zrotation Yrotation Xrotation
						End Site
						{
							OFFSET -0.00000 -0.00000 1.02013
						}
					}
				}
			}
		}
	}
	JOINT LowerBack
	{
		OFFSET 0 0 0
		CHANNELS 3 Zrotation Yrotation Xrotation
		JOINT Spine
		{
			OFFSET -0.07096 2.10460 -0.27878
			CHANNELS 3 Zrotation Yrotation Xrotation
			JOINT Spine1
			{
				OFFSET -0.00826 2.13662 -0.08279
				CHANNELS 3 Zrotation Yrotation Xrotation
				JOINT Neck
				{
					OFFSET 0 0 0
					CHANNELS 3 Zrotation Yrotation Xrotation
					JOINT Neck1
					{
						OFFSET 0.03239 1.77799 0.24435
						CHANNELS 3 Zrotation Yrotation Xrotation
						JOINT Head
						{
							OFFSET 0.01026 1.74194 -0.49664
							CHANNELS 3 Zrotation Yrotation Xrotation
							End Site
							{
								OFFSET 0.00170 1.83057 -0.19653
							}
						}
					}
				}
				JOINT LeftShoulder
				{
					OFFSET 0 0 0
					CHANNELS 3 Zrotation Yrotation Xrotation
					JOINT LeftArm
					{
						OFFSET 3.19178 1.35907 -0.31412
						CHANNELS 3 Zrotation Yrotation Xrotation
						JOINT LeftForeArm
						{
							OFFSET 4.85247 -0.00000 -0.00000
							CHANNELS 3 Zrotation Yrotation Xrotation
							JOINT LeftHand
							{
								OFFSET 3.55584 -0.00000 0.00000
								CHANNELS 3 Zrotation Yrotation Xrotation
								JOINT LeftFingerBase
								{
									OFFSET 0 0 0
									CHANNELS 3 Zrotation Yrotation Xrotation
									JOINT LeftHandIndex1
									{
										OFFSET 0.69320 -0.00000 0.00000
										CHANNELS 3 Zrotation Yrotation Xrotation
										End Site
										{
											OFFSET 0.55888 -0.00000 0.00000
										}
									}
								}
								JOINT LThumb
								{
									OFFSET 0 0 0
									CHANNELS 3 Zrotation Yrotation Xrotation
									End Site
									{
										OFFSET 0.56741 -0.00000 0.56741
									}
								}
							}
						}
					}
				}
				JOINT RightShoulder
				{
					OFFSET 0 0 0
					CHANNELS 3 Zrotation Yrotation Xrotation
					JOINT RightArm
					{
						OFFSET -3.28999 1.24191 -0.26899
						CHANNELS 3 Zrotation Yrotation Xrotation
						JOINT RightForeArm
						{
							OFFSET -4.64462 -0.00000 0.00000
							CHANNELS 3 Zrotation Yrotation Xrotation
							JOINT RightHand
							{
								OFFSET -3.40703 -0.00000 0.00000
								CHANNELS 3 Zrotation Yrotation Xrotation
								JOINT RightFingerBase
								{
									OFFSET 0 0 0
									CHANNELS 3 Zrotation Yrotation Xrotation
									JOINT RightHandIndex1
									{
										OFFSET -0.61958 -0.00000 0.00000
										CHANNELS 3 Zrotation Yrotation Xrotation
										End Site
										{
											OFFSET -0.49952 -0.00000 0.00000
										}
									}
								}
								JOINT RThumb
								{
									OFFSET 0 0 0
									CHANNELS 3 Zrotation Yrotation Xrotation
									End Site
									{
										OFFSET -0.50715 -0.00000 0.50715
									}
								}
							}
						}
					}
				}
			}
		}
	}
}
MOTION
Frames: 12
Frame Time: .0083333
-28.8695 17.1793 0.3615 0 0 0 0 0 0 -21 0 0 0 0 0 0 0 0 0 0 0 0 0 0 21 0 0 0 0 0 0 0 0 0 0 0 0 0 0 0 0 0 0 0 0 0 0 -16 0 0 21 0 0 11 0 0 0 -8 0 0 0 0 0 0 0 0 0 0 0 0 0 0 0 0 0 0 0 0 8 0 0 0 0 0 0 0 0 0 0 0 0 0 0 0 0 0
-28.8695 17.1793 0.3615 12.9086 84.8798 13.2783 0.0000 0.0000 0.0000 -14.3128 4.2918 2.9211 0.3833 3.9757 11.0083 0.7553 3.8782 -18.2719 0.5227 -4.6335 -12.8662 0.0000 0.0000 0.0000 14.4976 -12.2739 6.7118 -0.0124 -0.7185 1.9746 -0.7413 -0.1889 -16.3416 -0.7009 -5.3514 14.9137 -2.3239 1.1484 8.5838 0.1985 1.3466 1.1009 1.3542 0.7145 -3.7285 3.2728 2.7206 -21.8238 -1.7971 3.9418 31.2522 -0.5090 2.0157 14.5387 0.0000 -0.0000 0.0000 -85.5611 -3.1175 44.8980 13.0399 -21.3457 -2.4678 -0.0000 -0.0000 9.6191 33.6068 -30.6967 -18.7399 -7.1250 0.0000 -0.0000 1.2728 -5.4945 -1.3891 0.0000 -0.0000 0.0000 86.4051 -0.4861 35.4444 -16.2516 25.8606 -3.7550 0.0000 0.0000 6.9049 -15.7603 -25.2511 6.8649 7.1250 -0.0000 -0.0000 14.9228 -55.4609 -3.8948
-28.8704 17.1782 0.3605 13.1014 84.8703 13.5419 0.0000 0.0000 0.0000 -14.4200 4.0280 3.0277 0.3739 3.9274 10.8725 0.7690 3.9548 -18.4606 0.4635 -4.3667 -12.1108 0.0000 0.0000 0.0000 14.4702 -12.2970 6.5905 -0.0130 -0.7360 2.0227 -0.7359 -0.1566 -16.2709 -0.7300 -5.4590 15.2225 -2.3312 1.1582 8.5408 0.1777 1.3589 1.0893 1.3359 0.7204 -3.7168 3.2713 2.7131 -21.9097 -1.7451 3.9090 31.2812 -0.4925 2.0077 14.5681 -0.0000 -0.0000 0.0000 -85.4791 -3.0899 44.9642 13.0522 -21.3637 -2.4723 -0.0000 -0.0000 9.5709 33.3281 -31.0364 -18.7285 -7.1250 0.0000 -0.0000 1.0431 -5.7750 -1.1429 -0.0000 -0.0000 0.0000 86.4414 -0.4927 35.3243 -16.2188 25.8165 -3.7407 0.0000 0.0000 7.0584 -15.7725 -25.3765 6.9020 7.1250 -0.0000 -0.0000 14.9763 -55.5861 -3.9551
-28.8715 17.1791 0.3585 13.9448 84.7690 14.4073 0.0000 0.0000 0.0000 -14.5596 4.0682 2.9995 0.3758 3.9375 10.9008 0.7737 3.9456 -18.5046 0.4720 -4.4062 -12.2223 0.0000 0.0000 0.0000 14.3668 -12.1972 6.5701 -0.0131 -0.7387 2.0301 -0.7401 -0.1829 -16.3259 -0.7040 -5.3628 14.9464 -2.4400 1.1744 8.5637 0.1503 1.3686 1.0844 1.3671 0.7268 -3.7369 3.2374 2.7277 -21.9424 -1.6857 3.9187 31.2693 -0.4603 2.0152 14.5679 0.0000 0.0000 0.0000 -85.3902 -3.0016 45.1560 13.1068 -21.4436 -2.4922 -0.0000 -0.0000 9.3331 33.3359 -30.6657 -18.5458 -7.1250 0.0000 -0.0000 1.1279 -5.3784 -1.2289 0.0000 0.0000 0.0000 86.4147 -0.5161 35.3579 -16.1868 25.7733 -3.7268 0.0000 0.0000 7.2274 -15.7789 -25.7220 6.9917 7.1250 -0.0000 -0.0000 15.1545 -55.9247 -4.1294
-28.8744 17.1824 0.3560 14.1809 84.7048 14.5873 0.0000 0.0000 0.0000 -14.6310 4.0786 3.0395 0.3777 3.9471 10.9280 0.7759 4.0353 -18.5807 0.5264 -4.6497 -12.9120 0.0000 0.0000 0.0000 14.3309 -12.0782 6.6515 -0.0129 -0.7335 2.0157 -0.7452 -0.2399 -16.4029 -0.6589 -5.1917 14.4562 -2.4852 1.1672 8.6864 0.1645 1.3527 1.0954 1.4070 0.7204 -3.7947 3.1465 2.7330 -21.9358 -1.6576 3.9498 31.2430 -0.4277 2.0210 14.5524 0.0000 -0.0000 0.0000 -85.4385 -2.9972 45.0228 13.0381 -21.3430 -2.4671 -0.0000 -0.0000 9.3755 33.8780 -30.2151 -18.6695 -7.1250 0.0000 -0.0000 1.5295 -5.0570 -1.6590 0.0000 -0.0000 0.0000 86.3283 -0.5985 35.5207 -16.2184 25.8159 -3.7406 0.0000 0.0000 7.3102 -15.8340 -26.1560 7.1262 7.1250 -0.0000 -0.0000 15.3363 -56.3590 -4.3433
-28.8775 17.1826 0.3554 13.1732 84.7163 13.5910 0.0000 0.0000 0.0000 -14.4507 4.2083 2.8724 0.3902 4.0112 11.1081 0.7915 3.8226 -18.6147 0.4891 -4.4844 -12.4436 0.0000 0.0000 0.0000 14.4743 -11.9672 6.6565 -0.0128 -0.7311 2.0092 -0.7367 -0.3432 -16.3482 -0.6260 -5.0630 14.0883 -2.3750 1.1534 8.6815 0.1840 1.3465 1.1262 1.3664 0.7155 -3.7576 3.1600 2.7326 -21.9661 -1.7201 3.9644 31.2430 -0.4525 2.0190 14.5616 -0.0000 0.0000 0.0000 -85.4678 -3.0534 44.7657 12.9630 -21.2330 -2.4399 -0.0000 -0.0000 9.6169 33.9648 -30.3540 -18.7988 -7.1250 0.0000 -0.0000 1.5480 -5.2342 -1.6834 -0.0000 0.0000 0.0000 86.3057 -0.6179 35.5049 -16.2016 25.7932 -3.7333 0.0000 0.0000 7.2364 -15.7994 -25.8481 7.0329 7.1250 -0.0000 -0.0000 15.2021 -56.0518 -4.1900
-28.8768 17.1807 0.3555 12.3031 84.6452 12.7987 0.0000 0.0000 0.0000 -14.2872 4.4327 2.6515 0.3992 4.0567 11.2362 0.8002 3.5885 -18.5682 0.4501 -4.3043 -11.9343 0.0000 0.0000 0.0000 14.5981 -11.8276 6.5894 -0.0129 -0.7341 2.0175 -0.7241 -0.4430 -16.2454 -0.6095 -4.9968 13.8995 -2.3049 1.1861 8.5590 0.1716 1.3989 1.1319 1.3102 0.7395 -3.6836 3.2259 2.7426 -21.9153 -1.7423 3.9622 31.2145 -0.4741 2.0233 14.5399 -0.0000 -0.0000 0.0000 -85.3854 -3.0009 44.7627 12.9795 -21.2572 -2.4459 -0.0000 -0.0000 9.7261 33.6688 -30.6550 -18.7594 -7.1250 0.0000 -0.0000 1.3166 -5.4686 -1.4364 -0.0000 -0.0000 0.0000 86.3529 -0.6688 35.2258 -16.1318 25.6991 -3.7030 0.0000 0.0000 7.1459 -15.6937 -24.9083 6.7487 7.1250 -0.0000 -0.0000 14.8126 -55.1128 -3.7386
-28.8768 17.1827 0.3558 12.8110 84.6268 13.2428 0.0000 0.0000 0.0000 -14.4134 4.2478 2.8917 0.3862 3.9907 11.0506 0.7930 3.7603 -18.5932 0.3945 -4.0330 -11.1694 0.0000 0.0000 0.0000 14.5130 -11.8693 6.6307 -0.0134 -0.7480 2.0557 -0.7216 -0.4507 -16.2211 -0.6080 -4.9910 13.8829 -2.3681 1.1999 8.6419 0.1535 1.4090 1.1375 1.3243 0.7458 -3.7255 3.2152 2.7149 -21.8902 -1.6740 3.8990 31.1823 -0.4568 2.0049 14.5158 0.0000 0.0000 0.0000 -85.3148 -2.9072 44.8149 12.9960 -21.2813 -2.4518 -0.0000 -0.0000 9.8184 33.6194 -30.7592 -18.7803 -7.1250 0.0000 -0.0000 1.2662 -5.5658 -1.3833 0.0000 0.0000 0.0000 86.3840 -0.7761 34.9129 -16.0981 25.6535 -3.6883 0.0000 0.0000 7.1891 -15.6261 -24.4982 6.6156 7.1250 -0.0000 -0.0000 14.6733 -54.6979 -3.5528
-28.8758 17.1794 0.3567 12.6749 84.6160 13.1681 0.0000 0.0000 0.0000 -14.4585 4.0774 2.9728 0.3754 3.9351 10.8941 0.7804 3.9769 -18.5923 0.3602 -3.8556 -10.6708 0.0000 0.0000 0.0000 14.5238 -11.8633 6.5391 -0.0138 -0.7598 2.0880 -0.7257 -0.3545 -16.2299 -0.6256 -5.0614 14.0837 -2.3850 1.2017 8.5679 0.1649 1.4119 1.1358 1.3466 0.7470 -3.6868 3.0596 2.7076 -21.8264 -1.5414 3.9005 31.1217 -0.3772 2.0062 14.4671 -0.0000 0.0000 0.0000 -85.3031 -2.8809 44.7550 12.9909 -21.2738 -2.4500 -0.0000 -0.0000 9.8843 33.5531 -30.5210 -18.6144 -7.1250 0.0000 -0.0000 1.2809 -5.2883 -1.3939 -0.0000 0.0000 0.0000 86.3795 -0.7921 34.7504 -16.0533 25.5929 -3.6690 0.0000 0.0000 7.2457 -15.6168 -24.5362 6.6211 7.1250 -0.0000 -0.0000 14.7017 -54.7335 -3.5728
-28.8784 17.1794 0.3576 11.9024 84.7018 12.4127 0.0000 0.0000 0.0000 -14.3415 4.0316 2.9048 0.3776 3.9466 10.9265 0.7691 4.0712 -18.5326 0.4437 -4.2739 -11.8484 0.0000 0.0000 0.0000 14.6630 -11.7577 6.5685 -0.0130 -0.7375 2.0269 -0.7425 -0.3812 -16.4262 -0.7138 -5.3994 15.0513 -2.2935 1.1698 8.5895 0.1848 1.3785 1.1426 1.3195 0.7293 -3.6887 3.0937 2.7095 -21.9273 -1.5596 3.8929 31.1599 -0.3904 2.0029 14.5075 0.0000 0.0000 0.0000 -85.3121 -2.9033 44.6544 12.9222 -21.1731 -2.4251 -0.0000 -0.0000 9.9979 33.7824 -30.3433 -18.6734 -7.1250 0.0000 -0.0000 1.4481 -5.1665 -1.5731 0.0000 0.0000 0.0000 86.4064 -0.7681 34.6551 -15.9875 25.5037 -3.6406 0.0000 0.0000 7.2897 -15.6445 -24.5470 6.6360 7.1250 -0.0000 -0.0000 14.6792 -54.7493 -3.5728
-28.8755 17.1783 0.3562 11.9286 84.6155 12.4810 0.0000 0.0000 0.0000 -14.3523 4.1514 2.8966 0.3666 3.8891 10.7649 0.7456 4.2383 -18.3900 0.5407 -4.7113 -13.0869 0.0000 0.0000 0.0000 14.6465 -11.7448 6.5177 -0.0133 -0.7460 2.0502 -0.7504 -0.3123 -16.4871 -0.7398 -5.4947 15.3251 -2.3151 1.1737 8.5002 0.1851 1.3838 1.1507 1.3331 0.7316 -3.6312 3.1108 2.7256 -21.8970 -1.6189 3.9346 31.1748 -0.4099 2.0149 14.5108 -0.0000 0.0000 0.0000 -85.3801 -2.9168 44.4227 12.7727 -20.9533 -2.3714 -0.0000 -0.0000 10.4660 34.2126 -30.5706 -19.0758 -7.1250 0.0000 -0.0000 1.6391 -5.5460 -1.7906 -0.0000 0.0000 0.0000 86.4340 -0.7219 34.5227 -15.8795 25.3570 -3.5942 0.0000 0.0000 7.4638 -15.6674 -24.5018 6.6347 7.1250 -0.0000 -0.0000 14.6334 -54.7094 -3.5470
-28.8789 17.1787 0.3543 13.2405 84.6720 13.7429 0.0000 0.0000 0.0000 -14.4971 4.1195 2.9730 0.3590 3.8490 10.6522 0.7300 4.3323 -18.2846 0.5559 -4.7758 -13.2703 0.0000 0.0000 0.0000 14.5029 -11.8015 6.5875 -0.0130 -0.7368 2.0248 -0.7499 -0.4016 -16.5139 -0.6868 -5.2982 14.7611 -2.4253 1.1237 8.5887 0.1710 1.3053 1.1677 1.3881 0.6945 -3.6618 3.1353 2.7664 -21.9657 -1.6263 3.9850 31.1993 -0.4065 2.0370 14.5393 0.0000 -0.0000 0.0000 -85.4387 -2.9118 44.1701 12.7195 -20.8749 -2.3524 -0.0000 -0.0000 10.4822 33.7339 -30.7635 -18.8582 -7.1250 0.0000 -0.0000 1.3292 -5.6058 -1.4531 0.0000 -0.0000 0.0000 86.4442 -0.6589 34.4454 -15.7687 25.2060 -3.5469 0.0000 0.0000 7.6017 -15.7477 -24.5784 6.6896 7.1250 -0.0000 -0.0000 14.5906 -54.7998 -3.5687
